<?xml version="1.0" encoding="utf-8"?>
<!-- Svg Vector Icons : http://www.sfont.cn -->
<!DOCTYPE svg PUBLIC "-//W3C//DTD SVG 1.1//EN" "http://www.w3.org/Graphics/SVG/1.1/DTD/svg11.dtd">
<svg version="1.1" xmlns="http://www.w3.org/2000/svg" xmlns:xlink="http://www.w3.org/1999/xlink" x="0px" y="0px" viewBox="0 0 1000 1000" enable-background="new 0 0 1000 1000" xml:space="preserve">
<metadata> Svg Vector Icons : http://www.sfont.cn </metadata>
<g><path d="M852.7,341.2c23.7,51,37,107.8,37,167.8c0,220.1-178.5,398.6-398.6,398.6c-220.1,0-398.6-178.5-398.6-398.6c0-220.1,178.5-398.6,398.6-398.6c60.4,0,117.7,13.5,169,37.5l60.8-61.7C652.6,49,574.3,27.9,491.1,27.9C225.4,27.9,10,243.2,10,508.9C10,774.6,225.4,990,491.1,990s481.1-215.4,481.1-481.1c0-83-21-161.1-58-229.2L852.7,341.2z M284.9,715.1l164.9-55l412.3-384.9l-55-55L422.3,605.2l-27.5-27.5l384.9-384.9l-55-55L339.9,550.2L284.9,715.1z M845.1,201.3l46.4,46.4l46.4-46.4l23.2-23.2c38.5-38.5,38.5-100.8,0-139.3c-38.5-38.4-100.8-38.4-139.3,0L798.7,62l-46.4,46.4l46.4,46.4L845.1,201.3z M877.6,91.4c8.6-8.5,22.4-8.5,31,0c8.5,8.5,8.5,22.4,0,31l-15.5,15.5l-31-31L877.6,91.4z"/></g>
</svg>